<svg width="210" height="36" viewBox="0 0 210 36" fill="none" xmlns="http://www.w3.org/2000/svg">
<path d="M10.4 28.48C8.37333 28.48 6.6 28.0533 5.08 27.2C3.56 26.32 2.37333 25.0667 1.52 23.44C0.666667 21.7867 0.24 19.7867 0.24 17.44C0.24 15.12 0.6 12.9867 1.32 11.04C2.06667 9.09333 3.08 7.41333 4.36 6C5.64 4.58667 7.12 3.49333 8.8 2.72C10.5067 1.92 12.32 1.52 14.24 1.52C15.76 1.52 17.1333 1.89333 18.36 2.64C19.6133 3.36 20.6133 4.4 21.36 5.76L17.04 9.12C16.1067 7.73333 15.0667 7.04 13.92 7.04C12.6667 7.04 11.4933 7.49333 10.4 8.4C9.33333 9.28 8.46667 10.48 7.8 12C7.13333 13.4933 6.8 15.1733 6.8 17.04C6.8 18.9067 7.18667 20.36 7.96 21.4C8.73333 22.44 10 22.96 11.76 22.96C12.4533 22.96 13.1467 22.7867 13.84 22.44C14.5333 22.0667 15.1733 21.6267 15.76 21.12L18.4 25.2C17.92 25.6533 17.28 26.1333 16.48 26.64C15.7067 27.1467 14.8 27.5867 13.76 27.96C12.7467 28.3067 11.6267 28.48 10.4 28.48ZM25.6888 28.48C23.9288 28.48 22.5554 27.84 21.5688 26.56C20.5821 25.28 20.0888 23.4667 20.0888 21.12C20.0888 19.2267 20.3821 17.4533 20.9688 15.8C21.5554 14.1467 22.3421 12.7067 23.3288 11.48C24.3421 10.2267 25.4754 9.25333 26.7288 8.56C28.0088 7.86667 29.3421 7.52 30.7287 7.52C31.5821 7.52 32.3954 7.74667 33.1688 8.2C33.9688 8.62667 34.5421 9.22667 34.8888 10H34.9688L35.8488 8H40.9688L36.9688 28H31.7688V25.52H31.6888C30.8088 26.4267 29.8221 27.1467 28.7288 27.68C27.6621 28.2133 26.6488 28.48 25.6888 28.48ZM28.5688 23.28C29.1021 23.28 29.6888 23.1067 30.3288 22.76C30.9954 22.4133 31.5821 21.7067 32.0888 20.64L33.3688 14.24C33.1288 13.7067 32.7954 13.32 32.3688 13.08C31.9688 12.84 31.5821 12.72 31.2088 12.72C30.4354 12.72 29.7021 13.04 29.0088 13.68C28.3421 14.32 27.7954 15.2133 27.3688 16.36C26.9421 17.5067 26.7288 18.8267 26.7288 20.32C26.7288 21.36 26.8888 22.12 27.2088 22.6C27.5554 23.0533 28.0088 23.28 28.5688 23.28ZM45.1934 28.48C43.5668 28.48 42.3934 28.0933 41.6734 27.32C40.9801 26.52 40.6334 25.44 40.6334 24.08C40.6334 23.68 40.6601 23.2667 40.7134 22.84C40.7668 22.4133 40.8468 21.92 40.9534 21.36L45.1934 0.159998H51.5934L47.2734 21.6C47.2468 21.7867 47.2201 21.9333 47.1934 22.04C47.1934 22.1467 47.1934 22.2533 47.1934 22.36C47.1934 22.7333 47.2734 23 47.4334 23.16C47.6201 23.2933 47.8068 23.36 47.9934 23.36C48.1268 23.36 48.2334 23.36 48.3134 23.36C48.4201 23.3333 48.5534 23.3067 48.7134 23.28L48.4734 28C48.1268 28.1067 47.6734 28.2133 47.1134 28.32C46.5534 28.4267 45.9134 28.48 45.1934 28.48ZM54.6388 28.48C53.0121 28.48 51.8388 28.0933 51.1188 27.32C50.4254 26.52 50.0788 25.44 50.0788 24.08C50.0788 23.68 50.1054 23.2667 50.1588 22.84C50.2121 22.4133 50.2921 21.92 50.3988 21.36L54.6388 0.159998H61.0388L56.7188 21.6C56.6921 21.7867 56.6654 21.9333 56.6388 22.04C56.6388 22.1467 56.6388 22.2533 56.6388 22.36C56.6388 22.7333 56.7188 23 56.8788 23.16C57.0654 23.2933 57.2521 23.36 57.4388 23.36C57.5721 23.36 57.6788 23.36 57.7588 23.36C57.8654 23.3333 57.9988 23.3067 58.1588 23.28L57.9188 28C57.5721 28.1067 57.1188 28.2133 56.5588 28.32C55.9988 28.4267 55.3588 28.48 54.6388 28.48ZM64.1641 28.48C62.5374 28.48 61.3374 28.04 60.5641 27.16C59.8174 26.28 59.4441 24.9867 59.4441 23.28C59.4441 22.3733 59.5507 21.4133 59.7641 20.4L62.2441 8H68.6441L66.3241 19.6C66.2441 19.9467 66.1641 20.2667 66.0841 20.56C66.0307 20.8533 66.0041 21.12 66.0041 21.36C66.0041 22.48 66.5641 23.04 67.6841 23.04C68.2174 23.04 68.7374 22.8533 69.2441 22.48C69.7507 22.1067 70.3241 21.5467 70.9641 20.8L73.4441 8H79.8441L75.9241 28H70.7241V25.44H70.5641C69.7374 26.24 68.7641 26.9467 67.6441 27.56C66.5241 28.1733 65.3641 28.48 64.1641 28.48ZM78.5544 28L82.5544 8H87.7544V10.56H87.9144C88.8477 9.76 89.8477 9.05333 90.9144 8.44C91.981 7.82667 93.0877 7.52 94.2344 7.52C95.6744 7.52 96.7277 7.82667 97.3944 8.44C98.061 9.02667 98.5544 9.84 98.8744 10.88C99.9144 9.92 100.994 9.12 102.114 8.48C103.234 7.84 104.368 7.52 105.514 7.52C107.168 7.52 108.368 7.96 109.114 8.84C109.861 9.69333 110.234 10.9867 110.234 12.72C110.234 13.6267 110.128 14.5867 109.914 15.6L107.434 28H101.034L103.354 16.4C103.434 16.0267 103.501 15.7067 103.554 15.44C103.634 15.1467 103.674 14.88 103.674 14.64C103.674 13.52 103.114 12.96 101.994 12.96C101.221 12.96 100.128 13.7067 98.7144 15.2L96.1544 28H89.7544L92.0744 16.4C92.1544 16.0267 92.221 15.7067 92.2744 15.44C92.3544 15.1467 92.3944 14.88 92.3944 14.64C92.3944 14.08 92.2477 13.6667 91.9544 13.4C91.661 13.1067 91.2744 12.96 90.7944 12.96C89.9677 12.96 88.8477 13.7067 87.4344 15.2L84.9544 28H78.5544ZM116.798 28L121.998 2H130.318C132.078 2 133.638 2.21333 134.998 2.64C136.358 3.04 137.424 3.68 138.198 4.56C138.971 5.44 139.358 6.58667 139.358 8C139.358 9.38667 138.878 10.68 137.918 11.88C136.958 13.0533 135.571 13.92 133.758 14.48L133.678 14.64C136.611 15.36 138.078 16.9333 138.078 19.36C138.078 21.44 137.544 23.12 136.478 24.4C135.411 25.6533 134.011 26.5733 132.278 27.16C130.544 27.72 128.664 28 126.638 28H116.798ZM126.318 12.4H128.478C130.051 12.4 131.158 12.1067 131.798 11.52C132.464 10.9067 132.798 10.1067 132.798 9.12C132.798 7.62667 131.624 6.88 129.278 6.88H127.438L126.318 12.4ZM124.158 23.12H127.118C128.718 23.12 129.918 22.8 130.718 22.16C131.518 21.52 131.918 20.6667 131.918 19.6C131.918 17.68 130.744 16.72 128.398 16.72H125.438L124.158 23.12ZM139.549 35.52C139.149 35.52 138.642 35.4267 138.029 35.24C137.415 35.08 136.909 34.88 136.509 34.64L138.429 30.08C138.882 30.3467 139.389 30.48 139.949 30.48C140.562 30.48 141.162 30.2667 141.749 29.84C142.362 29.44 142.842 28.8933 143.189 28.2L143.589 27.4L140.069 8H146.429L147.149 16.2C147.229 17.0533 147.282 18.04 147.309 19.16C147.362 20.2533 147.389 21.28 147.389 22.24H147.549C147.949 21.3067 148.375 20.2933 148.829 19.2C149.282 18.1067 149.709 17.1067 150.109 16.2L153.709 8H159.869L149.429 27.96C147.935 30.5467 146.442 32.4533 144.949 33.68C143.482 34.9067 141.682 35.52 139.549 35.52ZM156.492 28L160.492 8H165.692L165.532 11.92H165.692C166.465 10.64 167.372 9.58667 168.412 8.76C169.479 7.93333 170.572 7.52 171.692 7.52C172.252 7.52 172.705 7.56 173.052 7.64C173.399 7.69333 173.665 7.78667 173.852 7.92L171.772 13.44C171.505 13.28 171.172 13.1867 170.772 13.16C170.372 13.1333 170.012 13.12 169.692 13.12C168.865 13.12 168.079 13.4 167.332 13.96C166.585 14.52 165.825 15.4667 165.052 16.8L162.892 28H156.492ZM170.508 28L174.508 8H179.708V10.56H179.868C180.801 9.76 181.801 9.05333 182.868 8.44C183.961 7.82667 185.148 7.52 186.428 7.52C188.081 7.52 189.281 7.96 190.028 8.84C190.774 9.69333 191.148 10.9867 191.148 12.72C191.148 13.6267 191.041 14.5867 190.828 15.6L188.348 28H181.947L184.268 16.4C184.348 16.0267 184.414 15.7067 184.468 15.44C184.548 15.1467 184.588 14.88 184.588 14.64C184.588 13.52 184.028 12.96 182.908 12.96C182.348 12.96 181.801 13.1467 181.268 13.52C180.734 13.8667 180.108 14.4267 179.388 15.2L176.908 28H170.508ZM200.008 28.48C198.382 28.48 196.942 28.1333 195.688 27.44C194.435 26.7467 193.448 25.76 192.728 24.48C192.035 23.1733 191.688 21.6267 191.688 19.84C191.688 18 192.022 16.3333 192.688 14.84C193.355 13.32 194.235 12.0133 195.328 10.92C196.422 9.82667 197.635 8.98667 198.968 8.4C200.302 7.81333 201.635 7.52 202.968 7.52C204.595 7.52 205.888 7.86667 206.848 8.56C207.835 9.25333 208.542 10.1733 208.968 11.32C209.395 12.4667 209.608 13.7333 209.608 15.12C209.608 16.08 209.475 17.0267 209.208 17.96C208.942 18.8667 208.728 19.4667 208.568 19.76H197.688C197.688 21.1467 198.088 22.1467 198.888 22.76C199.715 23.3733 200.702 23.68 201.848 23.68C202.408 23.68 202.995 23.5467 203.608 23.28C204.248 23.0133 204.782 22.72 205.208 22.4L207.448 26.4C206.648 26.96 205.622 27.4533 204.368 27.88C203.115 28.28 201.662 28.48 200.008 28.48ZM198.168 15.92H204.248C204.302 15.7867 204.342 15.6133 204.368 15.4C204.395 15.1867 204.408 14.9867 204.408 14.8C204.408 14.1067 204.248 13.5333 203.928 13.08C203.608 12.6267 203.022 12.4 202.168 12.4C201.422 12.4 200.675 12.68 199.928 13.24C199.208 13.7733 198.622 14.6667 198.168 15.92Z" fill="black"/>
</svg>
